<svg width="1890" height="410" viewBox="0 0 1890 410" fill="none" xmlns="http://www.w3.org/2000/svg">
<path d="M1150.5 1.1C1147.2 1.6 1140.5 3.1 1135.5 4.5C1130.5 6 1122.5 9.2 1117.5 11.8C1110.6 15.4 1106.6 18.4 1100 25C1093.5 31.4 1090.5 35.3 1087.7 41C1085.7 45.1 1083.4 51.7 1082.5 55.5C1081.2 61.5 1081 82.1 1081 204.5C1081 325.3 1081.3 347.5 1082.5 353.5C1083.3 357.4 1085.9 364.3 1088.2 369C1091.3 375.4 1094.1 379.3 1099.4 384.5C1103.3 388.4 1109.7 393.4 1113.5 395.6C1117.3 397.9 1123.7 401 1127.5 402.5C1131.3 404 1138.5 406.2 1143.5 407.4L1152.5 409.5C1475.9 409.5 1483.9 409.4 1491.5 407.6C1495.9 406.6 1503.1 404.5 1507.5 402.9C1511.9 401.2 1518.7 398 1522.5 395.6C1526.3 393.2 1532.2 388.8 1535.4 385.9C1538.6 382.9 1543.2 377.8 1545.5 374.5C1547.9 371.2 1550.9 366.1 1552.4 363.2C1553.8 360.4 1555.7 355.2 1556.5 351.7C1557.7 346.5 1558 331.2 1558 252.2V171H1300V266H1336.5H1371.5H1442V315H1196V94H1618V410H1733L1733.5 94.5L1890 94V0C1321.5 0.2 1153.8 0.6 1150.5 1.1Z" fill="white"/>
<path d="M69 1.10015C65.7 1.60015 59.6 2.90014 55.5 4.10014C51.4 5.20014 44.6 7.70014 40.5 9.60014C36.4 11.6001 30.3 15.1001 27 17.4001C23.7 19.8001 18.6 24.4001 15.7 27.6001C12.7 30.9001 8.7 37.0001 6.5 41.5001C4.4 45.9001 2.1 52.0001 1.4 55.0001C0.2 59.5001 0 86.9002 0 205C0 339.9 0.0999992 349.9 1.8 356C2.7 359.6 4.9 365.2 6.5 368.5C8.2 371.8 11.6 377.1 14.3 380.2C16.9 383.4 21.7 388 25 390.6C28.3 393.1 35 397.1 40 399.5C45 401.9 52.6 404.7 57 405.8C61.4 407 68.8 408.4 73.5 409C79.4 409.7 131.3 410 243 409.8C394 409.4 404.5 409.3 411.5 407.6C415.6 406.6 422.4 404.5 426.5 402.9C430.6 401.3 436.9 398.3 440.5 396.3C444.2 394.1 451 388.5 456.5 383C464.3 375.3 466.9 371.9 470.3 365C473.3 359.1 475 353.9 476 348C477.2 341 477.5 323.7 477.5 249.2V170.9L219.5 171V266H361.5V315H115.5V94.0001L891 94.1001L901.5 102V163L891 170.9L540.5 171V410H656.5V266C928.7 266 950.2 265.8 957.8 264.5C962.6 263.7 969.3 262 972.7 260.7C976.2 259.5 981.6 256.9 984.8 255C988 253.1 993.2 248.9 996.3 245.8C999.4 242.7 1003.5 237.8 1005.2 234.8C1007 231.9 1009.6 226.8 1011 223.5C1012.3 220.2 1014.2 213.9 1015.2 209.5C1016.8 202.2 1017 195 1017 126V50.5001C1013.2 41.2001 1010 35.3001 1007.4 31.5001C1004.8 27.6001 999.2 21.1001 994.9 16.9001C989 11.3001 984.7 8.20015 978.1 4.90015L969.2 0.500146C268.4 0.300146 72.4 0.600147 69 1.10015Z" fill="#CE222A"/>
</svg>
